<?xml version="1.0" encoding="UTF-8"?>
<svg id="Calque_1" data-name="Calque 1" xmlns="http://www.w3.org/2000/svg" xmlns:xlink="http://www.w3.org/1999/xlink" viewBox="0 0 1080 1080">
  <defs>
    <style>
      .cls-1 {
        fill: url(#Dégradé_sans_nom_114-6);
      }

      .cls-2 {
        fill: #fff;
        font-family: Roboto-Black, Roboto;
        font-size: 7.54px;
        font-weight: 800;
      }

      .cls-3 {
        fill: url(#Dégradé_sans_nom_114);
      }

      .cls-4 {
        fill: url(#Dégradé_sans_nom_114-7);
      }

      .cls-5 {
        fill: url(#Dégradé_sans_nom_114-8);
      }

      .cls-6 {
        fill: url(#Dégradé_sans_nom_114-5);
      }

      .cls-7 {
        fill: url(#Dégradé_sans_nom_114-2);
      }

      .cls-8 {
        fill: url(#Dégradé_sans_nom_114-4);
      }

      .cls-9 {
        fill: none;
      }

      .cls-10 {
        fill: url(#Dégradé_sans_nom_114-3);
      }
    </style>
    <radialGradient id="Dégradé_sans_nom_114" data-name="Dégradé sans nom 114" cx="344.16" cy="628.16" fx="344.16" fy="628.16" r="12.46" gradientUnits="userSpaceOnUse">
      <stop offset="0" stop-color="#000"/>
      <stop offset="0" stop-color="#fff"/>
      <stop offset=".76" stop-color="#fff"/>
      <stop offset=".79" stop-color="#fff"/>
      <stop offset="1" stop-color="#fff"/>
    </radialGradient>
    <radialGradient id="Dégradé_sans_nom_114-2" data-name="Dégradé sans nom 114" cx="329.55" cy="611.74" fx="329.55" fy="611.74" r="0" xlink:href="#Dégradé_sans_nom_114"/>
    <radialGradient id="Dégradé_sans_nom_114-3" data-name="Dégradé sans nom 114" cx="344.91" cy="577.19" fx="344.91" fy="577.19" r="25.6" xlink:href="#Dégradé_sans_nom_114"/>
    <radialGradient id="Dégradé_sans_nom_114-4" data-name="Dégradé sans nom 114" cx="334.81" cy="607.61" fx="334.81" fy="607.61" r="18.77" xlink:href="#Dégradé_sans_nom_114"/>
    <radialGradient id="Dégradé_sans_nom_114-5" data-name="Dégradé sans nom 114" cx="323.89" cy="625.58" fx="323.89" fy="625.58" r="13.83" xlink:href="#Dégradé_sans_nom_114"/>
    <radialGradient id="Dégradé_sans_nom_114-6" data-name="Dégradé sans nom 114" cx="323.6" cy="592.91" fx="323.6" fy="592.91" r="12.22" xlink:href="#Dégradé_sans_nom_114"/>
    <radialGradient id="Dégradé_sans_nom_114-7" data-name="Dégradé sans nom 114" cx="356.75" cy="626.33" fx="356.75" fy="626.33" r="18.4" xlink:href="#Dégradé_sans_nom_114"/>
    <radialGradient id="Dégradé_sans_nom_114-8" data-name="Dégradé sans nom 114" cx="370.86" cy="617.78" fx="370.86" fy="617.78" r="17.5" xlink:href="#Dégradé_sans_nom_114"/>
  </defs>
  <g>
    <path class="cls-3" d="m338.6,642.16c.1.09-.5-.49-.8-.79-1.75-1.69-2.06-9.85-1.86-25.98.02-1.6,2.4-2.9,5.1-2.77.01,0,.03,0,.04,0,3.48.19,5.26.3,7.14.99.3.11,1.23.47,2.2,1.09.6.39,1.07.78,1.42,1.13.39.39.6.85.6,1.32-.01,4.12-.03,8.24-.04,12.36,0,3.6,0,7.19,0,10.79,0,.51-.25,1.02-.72,1.46-.16.15-.38.35-.71.64-.21.19-.91.49-1.36.69-2.37,1.04-9.23.83-11-.93"/>
    <line class="cls-7" x1="329.55" y1="611.74" x2="329.55" y2="611.73"/>
    <path class="cls-10" d="m375.48,559.63c.18,4.68-1.89,9.01-5.39,12.22-3.17,2.91-7.51,4.9-12.41,5.41l-20.69.81c-.06,0-.12,0-.18,0-.49.02-.97.06-1.45.11-11.07,1.11-19.64,8.96-20.1,18.39l-.94-23.91c.94-7.14,7.93-12.87,16.62-13.21l42.21-1.65c1.24-.05,2.27.77,2.31,1.82Z"/>
    <path class="cls-8" d="m354.02,589.31c.2,5.15-1.21,9.87-3.67,13.35-2.45,3.47-5.94,5.7-9.88,5.85l-10.66.42.02.56h0c-7.16.28-12.82,7.4-13.5,16.42l-.75-19.2c.3-4.02,1.59-7.66,3.56-10.49,2.45-3.52,5.96-5.78,9.93-5.93l24.94-.98Z"/>
    <path class="cls-6" d="m331.34,607.69c-.05.92-.06,1.84-.02,2.76l.46,11.74c.55,10.46-6.46,20.91-15.58,21.27h0s-.21-15.96-.21-15.96c.77-11.1,6.98-19.49,15.36-19.82h0Z"/>
    <path class="cls-1" d="m331.43,577.78l.52,13.36h0c-4.75.19-8.95,2.52-11.91,6.14-2.37,2.91-3.94,6.64-4.32,10.76l-.47-12.02c.26-9.43,6.7-17.2,15.09-18.2l1.1-.04Z"/>
    <path class="cls-4" d="m375.33,627.61c-1.6.95-4.11,1.12-4.32,1.13,0,0-1.37.08-2.78-.16-1.48-.26-2.87-.96-4.08-1.79-.21-.14-.49-.18-.75-.1h0c-.37.11-1.14-.97-2.23-2.29-.22-.27-.44-.54-.66-.81-2.6-3.21-4.45-5.63-6.47-8.6h0s-.32-.38-.32-.39c-2.25-2.84-6.43-4.45-10.23-3.46l-7.2,1.88c-.37.1-.52.48-.31.75l21.96,27.86c.11.14.29.22.48.21l14.64-.57c2.61-.1,4.67-2.02,4.62-4.32v-.46s-.31-9.54-.31-9.54c0-.47-.49-.72-.81-.35s-.73.74-1.2,1.02Z"/>
    <path class="cls-5" d="m365.58,638.57c.1.13-.51-.74-.82-1.19-1.78-2.56-2.26-14.74-2.37-38.79-.01-2.39,2.35-4.28,5.05-4.04.01,0,.03,0,.04,0,3.49.35,5.27.54,7.16,1.62.3.17,1.24.73,2.23,1.67.61.59,1.08,1.18,1.44,1.71.4.6.61,1.28.62,1.98.06,6.15.13,12.29.19,18.44.07,5.36.14,10.73.21,16.09,0,.76-.23,1.51-.69,2.17-.16.22-.37.51-.69.95-.21.28-.9.71-1.35,1-2.35,1.5-9.22,1.07-11.02-1.6"/>
    <text class="cls-2" transform="translate(315.57 656.57) rotate(-2.24)"><tspan x="0" y="0" xml:space="preserve">F A T O U   N G O M </tspan></text>
    <text/>
  </g>
  <rect class="cls-9" x="239" y="510" width="301" height="264"/>
</svg>